<?xml version="1.0" standalone="no"?><!DOCTYPE svg PUBLIC "-//W3C//DTD SVG 1.1//EN" "http://www.w3.org/Graphics/SVG/1.1/DTD/svg11.dtd"><svg t="1737496157302" class="icon" viewBox="0 0 1024 1024" version="1.1" xmlns="http://www.w3.org/2000/svg" p-id="1621" xmlns:xlink="http://www.w3.org/1999/xlink" width="200" height="200"><path d="M213.333333 473.6l85.333334-85.333333 234.666666 234.666666 149.333334-149.333333 128 128V213.333333H213.333333v260.266667z m0 120.704V810.666667h132.266667l127.402667-127.36L298.666667 508.970667l-85.333334 85.333333zM466.304 810.666667H810.666667v-88.362667l-128-128L466.304 810.666667zM170.666667 128h682.666666a42.666667 42.666667 0 0 1 42.666667 42.666667v682.666666a42.666667 42.666667 0 0 1-42.666667 42.666667H170.666667a42.666667 42.666667 0 0 1-42.666667-42.666667V170.666667a42.666667 42.666667 0 0 1 42.666667-42.666667z m490.666666 298.666667a64 64 0 1 1 0-128 64 64 0 0 1 0 128z" p-id="1622"></path></svg>